<svg width="150" height="150" viewBox="0 0 150 150" fill="none" xmlns="http://www.w3.org/2000/svg">
<g clip-path="url(#clip0_16249_127238)">
<path d="M75 150C116.421 150 150 116.421 150 75C150 33.5786 116.421 0 75 0C33.5786 0 0 33.5786 0 75C0 116.421 33.5786 150 75 150Z" fill="#F3F8FF"/>
<path d="M24.9072 63.031L24.6046 65.8075C24.5335 66.466 23.9372 66.9376 23.2876 66.8664L20.5111 66.5639C19.8526 66.4927 19.381 65.8965 19.4522 65.2468L19.7547 62.4704C19.8259 61.8118 20.4222 61.3402 21.0807 61.4114L23.8571 61.714C24.4979 61.7763 24.9784 62.3725 24.9072 63.031Z" fill="#FF9797"/>
<path d="M63.8489 20.7342L60.7787 18.5273C60.4851 18.3137 60.4228 17.9044 60.6275 17.6107L62.8344 14.5406C63.048 14.2469 63.4573 14.1846 63.751 14.3893L66.8211 16.5962C67.1148 16.8098 67.1771 17.2192 66.9724 17.5128L64.7655 20.5829C64.5519 20.8855 64.1425 20.9478 63.8489 20.7342Z" fill="#97E591"/>
<path d="M117.785 40.7833L122.092 37.6331C122.751 37.1526 123.676 37.295 124.157 37.9535L127.307 42.2605C127.787 42.9191 127.645 43.8446 126.987 44.3251L122.679 47.4753C122.021 47.9558 121.095 47.8135 120.615 47.1549L117.465 42.8479C116.975 42.1894 117.127 41.2639 117.785 40.7833Z" fill="#A1BCFA"/>
<path d="M126.977 65.0329C128.517 67.0618 126.23 69.3488 124.201 67.8004C122.661 65.7804 124.948 63.4844 126.977 65.0329Z" fill="#FFCF36"/>
<path d="M54.6382 25.1126C55.1248 25.1126 55.5192 24.7181 55.5192 24.2316C55.5192 23.745 55.1248 23.3506 54.6382 23.3506C54.1516 23.3506 53.7572 23.745 53.7572 24.2316C53.7572 24.7181 54.1516 25.1126 54.6382 25.1126Z" fill="#FFCF36"/>
<path d="M52.0952 53.5449C52.0952 46.6414 57.6917 41.0449 64.5952 41.0449H85.2712C92.1748 41.0449 97.7712 46.6414 97.7712 53.5449V93.2461H52.0952V53.5449Z" fill="#FFCF36"/>
<path d="M85.6534 41.0449H87.4966C93.1713 41.0449 97.7716 45.6452 97.7716 51.3199V93.2461H90.7803L90.344 47.8711C90.3252 45.9109 89.4261 44.0631 87.8954 42.8385L85.6534 41.0449Z" fill="#FFA92E"/>
<rect x="57.6884" y="99.7715" width="3.72865" height="11.186" fill="white"/>
<rect x="88.4493" y="99.7715" width="3.72865" height="11.186" fill="white"/>
<rect x="59.5526" y="99.7715" width="1.86433" height="11.186" fill="#E6F0FF"/>
<rect x="90.3139" y="99.7715" width="1.86433" height="11.186" fill="#E6F0FF"/>
<path d="M57.6884 85.7871L62.3256 86.7898C70.6348 88.5863 79.232 88.5863 87.5412 86.7898L92.1784 85.7871V93.2444H57.6884V85.7871Z" fill="#FFA92E"/>
<path d="M57.6884 76.4639H46.5024V89.5142C46.5024 91.5734 48.1718 93.2428 50.231 93.2428H57.6884V76.4639Z" fill="#FFCF36"/>
<path d="M52.0954 76.4639H46.5024V90.4463C46.5024 91.9908 47.7544 93.2428 49.2989 93.2428H57.6884C54.4013 92.421 52.0954 89.4676 52.0954 86.0795V76.4639Z" fill="#FFA92E"/>
<rect x="42.7739" y="70.8701" width="16.7789" height="5.59298" rx="0.932163" fill="#FFCF36"/>
<rect x="42.7739" y="73.667" width="16.7789" height="2.79649" fill="#FFA92E"/>
<path fill-rule="evenodd" clip-rule="evenodd" d="M62.0953 39.6396C55.8002 39.6396 50.697 44.7428 50.697 51.0379V69.4712H43.7058C42.4188 69.4712 41.3754 70.5145 41.3754 71.8016V75.5303C41.3754 76.8173 42.4188 77.8607 43.7058 77.8607H45.1036V89.513C45.1036 92.3445 47.3989 94.6399 50.2305 94.6399H56.2895V94.6426H57.6878H92.1778H93.5761V93.2444V87.6514C93.5761 83.7902 90.446 80.6602 86.5848 80.6602H63.2807C61.7069 80.6602 60.2545 81.1802 59.086 82.0579V77.8141C60.15 77.5984 60.9509 76.6579 60.9509 75.5303V71.8016C60.9509 70.5145 59.9075 69.4712 58.6204 69.4712H53.4935V51.0379C53.4935 46.2873 57.3446 42.4361 62.0953 42.4361H87.7713C92.5219 42.4361 96.373 46.2873 96.373 51.0379V70.8671H99.1695V51.0379C99.1695 44.7428 94.0663 39.6396 87.7713 39.6396H62.0953ZM54.8913 99.7661V102.563V110.952V113.749H57.6878H61.4164H64.2129V110.952V102.563V99.7661H61.4164H57.6878H54.8913ZM57.6878 102.563H58.6199H60.4843H61.4164V105.359V108.156V110.952H60.4843H58.6199H57.6878V108.156V105.359V102.563ZM56.2895 87.6514V91.8434H50.2305C48.9434 91.8434 47.9 90.8 47.9 89.513V77.8609H56.2895V87.6514ZM59.086 91.8461V87.6514C59.086 85.3347 60.9641 83.4566 63.2807 83.4566H86.5848C88.9015 83.4566 90.7796 85.3347 90.7796 87.6514V91.8461H59.086ZM88.4493 99.7661H85.6528V102.563V110.952V113.749H88.4493H92.178H94.9745V110.952V102.563V99.7661H92.178H88.4493ZM88.4493 102.563H89.3815H91.2458H92.178V105.359V108.156V110.952H91.2458H89.3815H88.4493V108.156V105.359V102.563ZM44.1719 75.0642V72.2677H58.1544V75.0642H44.1719Z" fill="#07448E"/>
<path d="M47.625 97.5H101.375C101.375 98.8807 100.256 100 98.875 100H50.125C48.7443 100 47.625 98.8807 47.625 97.5Z" fill="#E6F0FF"/>
<path fill-rule="evenodd" clip-rule="evenodd" d="M45.9104 92.3047H48.7069H101.138H103.934V95.1012V96.0333C103.934 99.6371 101.013 102.558 97.409 102.558H52.4355C48.8318 102.558 45.9104 99.6371 45.9104 96.0333V95.1012V92.3047ZM49.2057 97.8977C48.8885 97.3492 48.7069 96.7125 48.7069 96.0333V95.1012H51.5034H98.3411H101.138V96.0333C101.138 96.7125 100.956 97.3492 100.639 97.8977C99.9941 99.0122 98.7891 99.762 97.409 99.762H52.4355C51.0554 99.762 49.8504 99.0122 49.2057 97.8977Z" fill="#07448E"/>
<path d="M92.1785 76.4639H103.364V89.5142C103.364 91.5734 101.695 93.2428 99.6358 93.2428H92.1785V76.4639Z" fill="#FFCF36"/>
<path d="M99.8002 76.4639L103.364 76.4639V90.4463C103.364 91.9908 102.112 93.2428 100.568 93.2428H92.9552V76.4639H95.6932V88.4239C95.6932 89.18 96.3061 89.7929 97.0622 89.7929L98.4312 89.7929C99.1873 89.7929 99.8002 89.18 99.8002 88.4239V76.4639Z" fill="#FFA92E"/>
<rect x="89.3819" y="70.8701" width="16.7789" height="5.59298" rx="0.932163" fill="#FFCF36"/>
<rect x="89.3819" y="73.667" width="16.7789" height="2.79649" fill="#FFA92E"/>
<path d="M92.1776 76.4639H103.364V89.4928C103.364 91.5639 101.685 93.2428 99.6136 93.2428H92.1776V76.4639Z" stroke="#07448E" stroke-width="2.79649"/>
<rect x="89.3813" y="70.8701" width="16.7789" height="5.59298" rx="0.932163" stroke="#07448E" stroke-width="2.79649"/>
<path d="M37.625 112.5H111.375" stroke="#07448E" stroke-width="2.5" stroke-linecap="round" stroke-linejoin="round"/>
</g>
<defs>
<clipPath id="clip0_16249_127238">
<rect width="150" height="150" fill="white"/>
</clipPath>
</defs>
</svg>
